Lexend-wght600_VL.ufo
<glyph name="dollar" format="2">
  <advance width="630"/>
  <unicode hex="0024"/>
  <note>
dollar
</note>
  <anchor x="321.0" y="0" name="bottom"/>
  <anchor x="321.0" y="700.0" name="top"/>
  <outline>
    <contour>
      <point x="244.0" y="70" type="line"/>
      <point x="368.0" y="37" type="line"/>
      <point x="371.3333333333333" y="-91.0" type="line"/>
      <point x="240.66666666666666" y="-91.0" type="line"/>
    </contour>
    <contour>
      <point x="399" y="626.0" type="line"/>
      <point x="275" y="659.0" type="line"/>
      <point x="272.0" y="785.3333333333334" type="line"/>
      <point x="402.6666666666667" y="785.3333333333334" type="line"/>
    </contour>
    <component base="S"/>
  </outline>
</glyph>
<glyph name="asterisk" format="2">
  <advance width="387"/>
  <unicode hex="002A"/>
  <note>
asterisk
</note>
  <outline>
    <contour>
      <point x="240.66666666666666" y="372.6666666666667" type="line"/>
      <point x="152.33333333333334" y="372.6666666666667" type="line"/>
      <point x="164.33333333333334" y="494.0" type="line"/>
      <point x="173.0" y="493.0" type="line"/>
      <point x="68.0" y="413.3333333333333" type="line"/>
      <point x="26.0" y="490.6666666666667" type="line"/>
      <point x="145.66666666666666" y="540.6666666666666" type="line"/>
      <point x="144.33333333333334" y="532.6666666666666" type="line"/>
      <point x="24.666666666666668" y="585.0" type="line"/>
      <point x="67.33333333333333" y="661.3333333333334" type="line"/>
      <point x="173.0" y="580.3333333333334" type="line"/>
      <point x="164.33333333333334" y="580.6666666666666" type="line"/>
      <point x="152.33333333333334" y="703.3333333333334" type="line"/>
      <point x="240.66666666666666" y="703.3333333333334" type="line"/>
      <point x="226.33333333333334" y="574.0" type="line"/>
      <point x="215.33333333333334" y="578.6666666666666" type="line"/>
      <point x="320.0" y="660.0" type="line"/>
      <point x="362.0" y="583.0" type="line"/>
      <point x="240.33333333333334" y="531.3333333333334" type="line"/>
      <point x="240.33333333333334" y="543.3333333333334" type="line"/>
      <point x="361.3333333333333" y="491.3333333333333" type="line"/>
      <point x="319.3333333333333" y="414.6666666666667" type="line"/>
      <point x="214.0" y="494.6666666666667" type="line"/>
      <point x="227.0" y="493.0" type="line"/>
    </contour>
  </outline>
</glyph>
<glyph name="equal" format="2">
  <advance width="599"/>
  <unicode hex="003D"/>
  <note>
equal
</note>
  <outline>
    <contour>
      <point x="539.3333333333334" y="327.6666666666667" type="line"/>
      <point x="60.0" y="327.6666666666667" type="line"/>
      <point x="60.0" y="441.0" type="line"/>
      <point x="539.3333333333334" y="441.0" type="line"/>
    </contour>
    <contour>
      <point x="539.3333333333334" y="122.0" type="line"/>
      <point x="60.0" y="122.0" type="line"/>
      <point x="60.0" y="234.66666666666666" type="line"/>
      <point x="539.3333333333334" y="234.66666666666666" type="line"/>
    </contour>
  </outline>
</glyph>
<glyph name="K" format="2">
  <advance width="736"/>
  <unicode hex="004B"/>
  <note>
K
</note>
  <anchor x="340.0" y="0" name="bottom"/>
  <anchor x="352.0" y="700.0" name="top"/>
  <outline>
    <contour>
      <point x="92.0" y="0.0" type="line"/>
      <point x="92.0" y="700.0" type="line"/>
      <point x="236.0" y="700.0" type="line"/>
      <point x="236.0" y="0.0" type="line"/>
    </contour>
    <contour>
      <point x="202.0" y="211.0" type="line"/>
      <point x="175.0" y="345.0" type="line"/>
      <point x="530.6666666666666" y="700.0" type="line"/>
      <point x="705.6666666666666" y="700.0" type="line"/>
    </contour>
    <contour>
      <point x="547.6666666666666" y="0.0" type="line"/>
      <point x="284.3333333333333" y="352.3333333333333" type="line"/>
      <point x="384.3333333333333" y="438.6666666666667" type="line"/>
      <point x="719.3333333333334" y="0.0" type="line"/>
    </contour>
  </outline>
</glyph>
<glyph name="M" format="2">
  <advance width="869"/>
  <unicode hex="004D"/>
  <note>
M
</note>
  <anchor x="437.0" y="0" name="bottom"/>
  <anchor x="437.0" y="700.0" name="top"/>
  <outline>
    <contour>
      <point x="92.0" y="700.0" type="line"/>
      <point x="224.66666666666666" y="700.0" type="line"/>
      <point x="479.6666666666667" y="285.0" type="line"/>
      <point x="395.3333333333333" y="286.0" type="line"/>
      <point x="653.3333333333334" y="700.0" type="line"/>
      <point x="780.0" y="700.0" type="line"/>
      <point x="780.0" y="0.0" type="line"/>
      <point x="638.6666666666666" y="0.0" type="line"/>
      <point x="638.6666666666666" y="247.0" type="line" smooth="yes"/>
      <point x="638.6666666666666" y="337.0"/>
      <point x="647.6666666666666" y="481.0"/>
      <point x="658.6666666666666" y="552.0" type="qcurve"/>
      <point x="676.0" y="506.3333333333333" type="line"/>
      <point x="467.0" y="183.0" type="line"/>
      <point x="401.0" y="183.0" type="line"/>
      <point x="197.66666666666666" y="503.6666666666667" type="line"/>
      <point x="213.33333333333334" y="552.0" type="line"/>
      <point x="224.33333333333334" y="485.0"/>
      <point x="233.33333333333334" y="344.0"/>
      <point x="233.33333333333334" y="247.0" type="qcurve"/>
      <point x="233.33333333333334" y="0.0" type="line"/>
      <point x="206.33333333333334" y="0.0"/>
      <point x="119.0" y="0.0"/>
      <point x="92.0" y="0.0" type="qcurve"/>
    </contour>
  </outline>
</glyph>
<glyph name="grave" format="2">
  <advance width="276"/>
  <unicode hex="0060"/>
  <anchor x="161.33333333333334" y="521.6666666666666" name="_top"/>
  <outline>
    <contour>
      <point x="241.33333333333334" y="627.3333333333334" type="line"/>
      <point x="203.33333333333334" y="568.6666666666666" type="line"/>
      <point x="10.0" y="670.0" type="line"/>
      <point x="84.66666666666667" y="762.3333333333334" type="line"/>
    </contour>
  </outline>
</glyph>
<glyph name="g" format="2">
  <advance width="661"/>
  <unicode hex="0067"/>
  <note>
g
</note>
  <anchor x="332.0" y="0" name="bottom"/>
  <anchor x="327.6666666666667" y="535.0" name="top"/>
  <outline>
    <contour>
      <point x="91.0" y="-164.0" type="qcurve"/>
      <point x="138.0" y="-67.0" type="line"/>
      <point x="170.0" y="-91.66666666666667"/>
      <point x="254.33333333333334" y="-118.66666666666667"/>
      <point x="299.0" y="-118.66666666666667" type="qcurve"/>
      <point x="377.0" y="-118.66666666666667"/>
      <point x="454.3333333333333" y="-44.0"/>
      <point x="454.3333333333333" y="31.666666666666664" type="qcurve"/>
      <point x="454.3333333333333" y="125.66666666666667" type="line"/>
      <point x="476.6666666666667" y="119.66666666666667" type="line"/>
      <point x="468.0" y="72.0"/>
      <point x="357.0" y="-1.6666666666666679"/>
      <point x="291.0" y="-1.6666666666666679" type="qcurve"/>
      <point x="181.0" y="-1.6666666666666679"/>
      <point x="36.666666666666664" y="148.33333333333334"/>
      <point x="36.666666666666664" y="266.0" type="qcurve"/>
      <point x="36.666666666666664" y="385.0"/>
      <point x="179.66666666666666" y="539.3333333333334"/>
      <point x="287.3333333333333" y="539.3333333333334" type="qcurve"/>
      <point x="361.3333333333333" y="539.3333333333334"/>
      <point x="476.3333333333333" y="460.0"/>
      <point x="484.3333333333333" y="415.3333333333333" type="qcurve"/>
      <point x="456.0" y="407.0" type="line"/>
      <point x="459.6666666666667" y="528.3333333333334" type="line"/>
      <point x="591.0" y="528.3333333333334" type="line"/>
      <point x="591.0" y="38.666666666666664" type="line"/>
      <point x="591.0" y="-89.66666666666667"/>
      <point x="441.6666666666667" y="-230.0"/>
      <point x="311.0" y="-230.0" type="qcurve"/>
      <point x="249.66666666666666" y="-230.0"/>
      <point x="128.66666666666666" y="-193.33333333333334"/>
    </contour>
    <contour>
      <point x="458.6666666666667" y="265.3333333333333" type="qcurve"/>
      <point x="458.6666666666667" y="335.0"/>
      <point x="379.3333333333333" y="421.6666666666667"/>
      <point x="315.3333333333333" y="421.6666666666667" type="qcurve"/>
      <point x="252.0" y="421.6666666666667"/>
      <point x="173.0" y="334.3333333333333"/>
      <point x="173.0" y="265.3333333333333" type="qcurve"/>
      <point x="173.0" y="196.33333333333334"/>
      <point x="252.0" y="110.0"/>
      <point x="315.3333333333333" y="110.0" type="qcurve"/>
      <point x="380.0" y="110.0"/>
      <point x="458.6666666666667" y="195.66666666666666"/>
    </contour>
  </outline>
</glyph>
<glyph name="v" format="2">
  <advance width="592"/>
  <unicode hex="0076"/>
  <note>
v
</note>
  <anchor x="296.3333333333333" y="0" name="bottom"/>
  <anchor x="296.3333333333333" y="518.3333333333334" name="top"/>
  <outline>
    <contour>
      <point x="16.333333333333336" y="528.3333333333334" type="line"/>
      <point x="165.66666666666666" y="528.3333333333334" type="line"/>
      <point x="309.3333333333333" y="133.33333333333334" type="line"/>
      <point x="278.6666666666667" y="127.33333333333333" type="line"/>
      <point x="429.3333333333333" y="528.3333333333334" type="line"/>
      <point x="575.3333333333334" y="528.3333333333334" type="line"/>
      <point x="342.3333333333333" y="0.0" type="line"/>
      <point x="238.33333333333334" y="0.0" type="line"/>
    </contour>
  </outline>
</glyph>
<glyph name="x" format="2">
  <advance width="588"/>
  <unicode hex="0078"/>
  <note>
x
</note>
  <anchor x="292.0" y="0" name="bottom"/>
  <anchor x="292.0" y="518.3333333333334" name="top"/>
  <outline>
    <contour>
      <point x="19.666666666666664" y="528.3333333333334" type="line"/>
      <point x="185.66666666666666" y="528.3333333333334" type="line"/>
      <point x="319.0" y="342.3333333333333" type="line"/>
      <point x="364.0" y="281.0" type="line"/>
      <point x="571.0" y="0.0" type="line"/>
      <point x="407.6666666666667" y="0.0" type="line"/>
      <point x="270.6666666666667" y="192.0" type="line"/>
      <point x="227.0" y="251.33333333333334" type="line"/>
    </contour>
    <contour>
      <point x="177.33333333333331" y="-0.6666666666666667" type="line"/>
      <point x="17.333333333333332" y="0.0" type="line"/>
      <point x="228.33333333333334" y="286.3333333333333" type="line"/>
      <point x="300.6666666666667" y="191.33333333333334" type="line"/>
    </contour>
    <contour>
      <point x="396.6666666666667" y="528.3333333333334" type="line"/>
      <point x="557.3333333333334" y="528.3333333333334" type="line"/>
      <point x="354.6666666666667" y="240.66666666666666" type="line"/>
      <point x="281.6666666666667" y="330.3333333333333" type="line"/>
    </contour>
  </outline>
</glyph>
<glyph name="yen" format="2">
  <advance width="683"/>
  <unicode hex="00A5"/>
  <note>
yen
</note>
  <anchor x="338.3333333333333" y="-1.0" name="bottom"/>
  <outline>
    <contour>
      <point x="572.3333333333334" y="84.66666666666667" type="line"/>
      <point x="147.0" y="86.0" type="line"/>
      <point x="147.0" y="185.33333333333334" type="line"/>
      <point x="572.3333333333334" y="184.0" type="line"/>
    </contour>
    <contour>
      <point x="572.3333333333334" y="238.0" type="line"/>
      <point x="147.0" y="239.33333333333334" type="line"/>
      <point x="147.0" y="338.6666666666667" type="line"/>
      <point x="572.3333333333334" y="337.3333333333333" type="line"/>
    </contour>
    <component base="Y" xOffset="3.333333333333333"/>
  </outline>
</glyph>
<glyph name="degree" format="2">
  <advance width="532"/>
  <unicode hex="00B0"/>
  <note>
degree
</note>
  <outline>
    <contour>
      <point x="428.6666666666667" y="554.0" type="qcurve"/>
      <point x="428.6666666666667" y="487.60215053763443"/>
      <point x="334.6666666666667" y="395.6666666666667"/>
      <point x="266.0" y="395.6666666666667" type="qcurve"/>
      <point x="197.33333333333334" y="395.6666666666667"/>
      <point x="103.33333333333333" y="487.6147186147186"/>
      <point x="103.33333333333333" y="553.0" type="qcurve"/>
      <point x="103.33333333333333" y="620.4102564102565"/>
      <point x="196.0" y="712.3333333333334"/>
      <point x="266.0" y="712.3333333333334" type="qcurve"/>
      <point x="336.0" y="712.3333333333334"/>
      <point x="428.6666666666667" y="620.3978494623656"/>
    </contour>
    <contour>
      <point x="197.0" y="553.0" type="qcurve"/>
      <point x="197.0" y="522.3333333333334"/>
      <point x="237.1138211382114" y="479.3333333333333"/>
      <point x="266.0" y="479.3333333333333" type="qcurve"/>
      <point x="294.8861788617886" y="479.3333333333333"/>
      <point x="335.0" y="523.3333333333334"/>
      <point x="335.0" y="554.0" type="qcurve"/>
      <point x="335.0" y="584.6666666666666"/>
      <point x="295.0" y="627.6666666666666"/>
      <point x="266.0" y="627.6666666666666" type="qcurve"/>
      <point x="236.0" y="627.6666666666666"/>
      <point x="197.0" y="584.3333333333334"/>
    </contour>
  </outline>
</glyph>
<glyph name="Aring" format="2">
  <advance width="697"/>
  <unicode hex="00C5"/>
  <outline>
    <contour>
      <point x="478.3333333333333" y="764.0" type="qcurve"/>
      <point x="478.3333333333333" y="715.3333333333334"/>
      <point x="401.3333333333333" y="642.3333333333334"/>
      <point x="349.3333333333333" y="642.3333333333334" type="qcurve"/>
      <point x="297.3333333333333" y="642.3333333333334"/>
      <point x="219.33333333333334" y="715.3333333333334"/>
      <point x="219.33333333333334" y="764.0" type="qcurve"/>
      <point x="219.33333333333334" y="816.0"/>
      <point x="296.3333333333333" y="890.0"/>
      <point x="349.3333333333333" y="890.0" type="qcurve"/>
      <point x="401.3333333333333" y="890.0"/>
      <point x="478.3333333333333" y="816.0"/>
    </contour>
    <contour>
      <point x="305.0" y="764.0" type="qcurve"/>
      <point x="305.0" y="745.6666666666666"/>
      <point x="330.6666666666667" y="721.3333333333334"/>
      <point x="349.3333333333333" y="721.3333333333334" type="qcurve"/>
      <point x="367.3333333333333" y="721.3333333333334"/>
      <point x="393.6666666666667" y="746.3333333333334"/>
      <point x="393.6666666666667" y="764.0" type="qcurve"/>
      <point x="393.6666666666667" y="783.3333333333334"/>
      <point x="368.0" y="807.6666666666666"/>
      <point x="349.3333333333333" y="807.6666666666666" type="qcurve"/>
      <point x="330.6666666666667" y="807.6666666666666"/>
      <point x="305.0" y="783.3333333333334"/>
    </contour>
    <component base="A"/>
  </outline>
</glyph>
<glyph name="eogonek" format="2">
  <advance width="586"/>
  <unicode hex="0119"/>
  <note>
eogonek
</note>
  <outline>
    <contour>
      <point x="321.0" y="-10.0" type="qcurve"/>
      <point x="193.0" y="-10.0"/>
      <point x="36.666666666666664" y="142.33333333333334"/>
      <point x="36.666666666666664" y="260.6666666666667" type="qcurve"/>
      <point x="36.666666666666664" y="383.6666666666667"/>
      <point x="188.33333333333334" y="539.3333333333334"/>
      <point x="305.6666666666667" y="540.0" type="qcurve"/>
      <point x="413.0" y="539.3333333333334"/>
      <point x="551.3333333333334" y="391.0"/>
      <point x="551.3333333333334" y="277.3333333333333" type="qcurve"/>
      <point x="550.3333333333334" y="234.0" type="line"/>
      <point x="124.66666666666667" y="234.0" type="line"/>
      <point x="101.66666666666667" y="320.3333333333333" type="line"/>
      <point x="438.0" y="320.3333333333333" type="line"/>
      <point x="421.0" y="302.3333333333333" type="line"/>
      <point x="421.0" y="324.3333333333333" type="line"/>
      <point x="417.6666666666667" y="366.6666666666667"/>
      <point x="352.6666666666667" y="422.3333333333333"/>
      <point x="307.0" y="422.3333333333333" type="qcurve"/>
      <point x="238.33333333333334" y="422.3333333333333"/>
      <point x="166.33333333333334" y="344.0"/>
      <point x="166.33333333333334" y="270.6666666666667" type="qcurve"/>
      <point x="166.33333333333334" y="198.0"/>
      <point x="257.3333333333333" y="110.66666666666666"/>
      <point x="335.3333333333333" y="110.66666666666666" type="qcurve"/>
      <point x="371.3333333333333" y="110.66666666666666"/>
      <point x="430.3333333333333" y="133.0"/>
      <point x="464.3333333333333" y="161.33333333333334" type="qcurve"/>
      <point x="529.3333333333334" y="67.66666666666667" type="line"/>
      <point x="516.0" y="57.666666666666664"/>
      <point x="466.3333333333333" y="22.0"/>
      <point x="449.0" y="8.666666666666666" type="qcurve" smooth="yes"/>
      <point x="418.0" y="-16.333333333333336"/>
      <point x="383.3333333333333" y="-57.0"/>
      <point x="383.3333333333333" y="-82.0" type="qcurve" smooth="yes"/>
      <point x="383.3333333333333" y="-100.0"/>
      <point x="406.0" y="-125.33333333333334"/>
      <point x="423.6666666666667" y="-125.33333333333334" type="qcurve" smooth="yes"/>
      <point x="435.3333333333333" y="-125.33333333333334"/>
      <point x="461.3333333333333" y="-112.33333333333334"/>
      <point x="475.3333333333333" y="-100.33333333333334" type="qcurve"/>
      <point x="528.0" y="-159.33333333333334" type="line"/>
      <point x="500.0" y="-184.0"/>
      <point x="436.6666666666667" y="-217.66666666666666"/>
      <point x="402.3333333333333" y="-217.66666666666666" type="qcurve" smooth="yes"/>
      <point x="347.0" y="-217.66666666666666"/>
      <point x="279.3333333333333" y="-155.33333333333334"/>
      <point x="279.3333333333333" y="-103.33333333333333" type="qcurve" smooth="yes"/>
      <point x="279.3333333333333" y="-60.0"/>
      <point x="352.3333333333333" y="16.0"/>
      <point x="451.0" y="66.0" type="qcurve"/>
      <point x="464.6666666666667" y="61.333333333333336" type="line"/>
      <point x="443.3333333333333" y="39.66666666666667"/>
      <point x="355.0" y="-9.666666666666666"/>
    </contour>
  </outline>
</glyph>
<glyph name="Hbar" format="2">
  <advance width="836"/>
  <unicode hex="0126"/>
  <note>
Hbar
</note>
  <outline>
    <contour>
      <point x="135.33333333333334" y="474.6666666666667" type="line"/>
      <point x="47.0" y="474.6666666666667" type="line"/>
      <point x="47.0" y="598.6666666666666" type="line"/>
      <point x="142.0" y="598.6666666666666" type="line"/>
      <point x="209.0" y="588.6666666666666" type="line"/>
      <point x="603.0" y="588.6666666666666" type="line"/>
      <point x="670.3333333333334" y="598.6666666666666" type="line"/>
      <point x="790.0" y="598.6666666666666" type="line"/>
      <point x="790.0" y="474.6666666666667" type="line"/>
      <point x="675.0" y="474.6666666666667" type="line"/>
      <point x="615.0" y="484.6666666666667" type="line"/>
      <point x="199.0" y="484.6666666666667" type="line"/>
    </contour>
    <component base="H" xOffset="32"/>
  </outline>
</glyph>
<glyph name="OE" format="2">
  <advance width="1057"/>
  <unicode hex="0152"/>
  <note>
OE
</note>
  <anchor x="531.3333333333334" y="0" name="bottom"/>
  <anchor x="531.3333333333334" y="700.0" name="top"/>
  <outline>
    <contour>
      <point x="45.333333333333336" y="350.0" type="qcurve" smooth="yes"/>
      <point x="45.333333333333336" y="506.0"/>
      <point x="235.66666666666666" y="700.0"/>
      <point x="395.0" y="700.0" type="qcurve"/>
      <point x="991.3333333333334" y="700.0" type="line"/>
      <point x="991.3333333333334" y="572.3333333333334" type="line"/>
      <point x="649.3333333333334" y="572.3333333333334" type="line"/>
      <point x="658.3333333333334" y="590.3333333333334" type="line"/>
      <point x="658.3333333333334" y="412.0" type="line"/>
      <point x="649.3333333333334" y="421.0" type="line"/>
      <point x="936.3333333333334" y="421.0" type="line"/>
      <point x="936.3333333333334" y="297.0" type="line"/>
      <point x="652.3333333333334" y="297.0" type="line"/>
      <point x="658.3333333333334" y="306.0" type="line"/>
      <point x="658.3333333333334" y="120.66666666666666" type="line"/>
      <point x="651.3333333333334" y="127.66666666666666" type="line"/>
      <point x="991.3333333333334" y="127.66666666666666" type="line"/>
      <point x="991.3333333333334" y="0.0" type="line"/>
      <point x="375.0" y="0.0" type="line" smooth="yes"/>
      <point x="223.66666666666666" y="0.0"/>
      <point x="45.333333333333336" y="193.0"/>
    </contour>
    <contour>
      <point x="551.3333333333334" y="130.66666666666666" type="line"/>
      <point x="517.3333333333334" y="83.66666666666666" type="line"/>
      <point x="517.3333333333334" y="641.0" type="line"/>
      <point x="551.3333333333334" y="569.3333333333334" type="line"/>
      <point x="401.0" y="569.3333333333334" type="line" smooth="yes"/>
      <point x="301.3333333333333" y="569.3333333333334"/>
      <point x="191.33333333333331" y="451.6666666666667"/>
      <point x="191.33333333333331" y="350.0" type="qcurve" smooth="yes"/>
      <point x="191.33333333333331" y="247.33333333333334"/>
      <point x="294.0" y="130.66666666666666"/>
      <point x="387.6666666666667" y="130.66666666666666" type="qcurve" smooth="yes"/>
    </contour>
  </outline>
</glyph>
<glyph name="Nhookleft" format="2">
  <advance width="785"/>
  <unicode hex="019D"/>
  <outline>
    <contour>
      <point x="221.0" y="242.33333333333334" type="qcurve"/>
      <point x="221.0" y="-8.333333333333334" type="line" smooth="yes"/>
      <point x="221.0" y="-102.66666666666667"/>
      <point x="110.66666666666666" y="-200.33333333333334"/>
      <point x="12.666666666666666" y="-200.33333333333334" type="qcurve"/>
      <point x="-42.666666666666664" y="-94.66666666666667" type="line"/>
      <point x="18.666666666666668" y="-94.66666666666667"/>
      <point x="79.66666666666667" y="-35.0"/>
      <point x="79.66666666666667" y="24.333333333333332" type="qcurve"/>
      <point x="79.66666666666667" y="700.0" type="line"/>
      <point x="208.66666666666666" y="700.0" type="line"/>
      <point x="601.3333333333334" y="169.66666666666666" type="line"/>
      <point x="575.3333333333334" y="168.33333333333331" type="line"/>
      <point x="564.6666666666666" y="243.0"/>
      <point x="555.0" y="396.6666666666667"/>
      <point x="555.3333333333334" y="503.3333333333333" type="qcurve"/>
      <point x="555.3333333333334" y="700.0" type="line"/>
      <point x="696.6666666666666" y="700.0" type="line"/>
      <point x="696.6666666666666" y="0.0" type="line"/>
      <point x="565.6666666666666" y="0.0" type="line"/>
      <point x="166.66666666666666" y="531.3333333333334" type="line"/>
      <point x="201.0" y="532.6666666666666" type="line"/>
      <point x="205.66666666666666" y="491.6666666666667"/>
      <point x="215.0" y="404.6666666666667"/>
      <point x="216.33333333333331" y="364.0" type="qcurve" smooth="yes"/>
      <point x="219.0" y="326.6666666666667"/>
      <point x="221.0" y="271.6666666666667"/>
    </contour>
  </outline>
</glyph>
<glyph name="jdotless" format="2">
  <advance width="263"/>
  <unicode hex="0237"/>
  <note>
dotlessj
</note>
  <anchor x="151.0" y="0" name="bottom"/>
  <anchor x="136.0" y="532.6666666666666" name="top"/>
  <outline>
    <contour>
      <point x="206.0" y="528.3333333333334" type="line"/>
      <point x="206.0" y="-8.333333333333334" type="line" smooth="yes"/>
      <point x="206.0" y="-102.0"/>
      <point x="97.0" y="-200.33333333333334"/>
      <point x="1.0" y="-200.33333333333334" type="qcurve"/>
      <point x="-45.0" y="-107.33333333333333" type="line"/>
      <point x="16.666666666666668" y="-107.33333333333333"/>
      <point x="69.66666666666667" y="-47.333333333333336"/>
      <point x="69.66666666666667" y="24.333333333333332" type="qcurve"/>
      <point x="69.66666666666667" y="528.3333333333334" type="line"/>
    </contour>
  </outline>
</glyph>
<glyph name="breve" format="2">
  <advance width="402"/>
  <unicode hex="02D8"/>
  <anchor x="207.0" y="548.0" name="_top"/>
  <outline>
    <contour>
      <point x="201.0" y="574.0" type="qcurve" smooth="yes"/>
      <point x="136.0" y="574.0"/>
      <point x="43.333333333333336" y="658.3333333333334"/>
      <point x="29.0" y="731.3333333333334" type="qcurve"/>
      <point x="119.66666666666667" y="743.3333333333334" type="line"/>
      <point x="131.33333333333334" y="708.6666666666666"/>
      <point x="176.0" y="668.3333333333334"/>
      <point x="201.0" y="668.3333333333334" type="qcurve" smooth="yes"/>
      <point x="226.0" y="668.3333333333334"/>
      <point x="270.6666666666667" y="708.6666666666666"/>
      <point x="282.3333333333333" y="743.3333333333334" type="qcurve"/>
      <point x="373.0" y="731.3333333333334" type="line"/>
      <point x="358.6666666666667" y="658.3333333333334"/>
      <point x="266.0" y="574.0"/>
    </contour>
  </outline>
</glyph>
<glyph name="strokeshortcomb" format="2">
  <unicode hex="0335"/>
  <anchor x="186.0" y="294.0" name="_center"/>
  <outline>
    <contour>
      <point x="341.3333333333333" y="237.66666666666666" type="line"/>
      <point x="40.0" y="237.66666666666666" type="line"/>
      <point x="40.0" y="354.3333333333333" type="line"/>
      <point x="341.3333333333333" y="354.3333333333333" type="line"/>
    </contour>
  </outline>
</glyph>
<glyph name="emdash" format="2">
  <advance width="906"/>
  <unicode hex="2014"/>
  <note>
emdash
</note>
  <outline>
    <contour>
      <point x="850.6666666666666" y="227.0" type="line"/>
      <point x="55.333333333333336" y="227.0" type="line"/>
      <point x="55.333333333333336" y="348.6666666666667" type="line"/>
      <point x="850.6666666666666" y="348.6666666666667" type="line"/>
    </contour>
  </outline>
</glyph>
<glyph name="lira" format="2">
  <advance width="659"/>
  <unicode hex="20A4"/>
  <outline>
    <contour>
      <point x="318.3333333333333" y="224.0" type="qcurve"/>
      <point x="318.3333333333333" y="179.0"/>
      <point x="281.6666666666667" y="97.0"/>
      <point x="240.33333333333331" y="53.0" type="qcurve"/>
      <point x="142.0" y="74.0" type="line"/>
      <point x="164.0" y="86.0"/>
      <point x="195.0" y="158.0"/>
      <point x="195.0" y="201.0" type="qcurve"/>
      <point x="195.0" y="229.0"/>
      <point x="183.0" y="292.0"/>
      <point x="163.0" y="352.0" type="qcurve" smooth="yes"/>
      <point x="145.0" y="408.0"/>
      <point x="134.0" y="463.0"/>
      <point x="134.0" y="487.0" type="qcurve"/>
      <point x="134.0" y="588.6666666666666"/>
      <point x="260.6666666666667" y="711.3333333333334"/>
      <point x="366.6666666666667" y="711.3333333333334" type="qcurve"/>
      <point x="439.6666666666667" y="711.3333333333334"/>
      <point x="546.3333333333334" y="660.0"/>
      <point x="572.3333333333334" y="615.0" type="qcurve"/>
      <point x="481.6666666666667" y="549.0" type="line"/>
      <point x="457.3333333333333" y="574.3333333333334"/>
      <point x="401.6666666666667" y="600.3333333333334"/>
      <point x="366.6666666666667" y="600.3333333333334" type="qcurve"/>
      <point x="318.0" y="600.3333333333334"/>
      <point x="257.3333333333333" y="535.6666666666666"/>
      <point x="257.3333333333333" y="486.0" type="qcurve"/>
      <point x="257.3333333333333" y="465.0"/>
      <point x="268.3333333333333" y="412.6666666666667"/>
      <point x="288.3333333333333" y="353.0" type="qcurve" smooth="yes"/>
      <point x="307.3333333333333" y="297.0"/>
      <point x="318.3333333333333" y="244.0"/>
    </contour>
    <contour>
      <point x="458.3333333333333" y="-21.0" type="qcurve"/>
      <point x="441.3333333333333" y="-21.0"/>
      <point x="392.3333333333333" y="-11.666666666666666"/>
      <point x="339.6666666666667" y="4.0" type="qcurve" smooth="yes"/>
      <point x="293.6666666666667" y="18.0"/>
      <point x="253.66666666666666" y="26.0"/>
      <point x="240.66666666666666" y="26.0" type="qcurve"/>
      <point x="207.33333333333334" y="26.0"/>
      <point x="128.33333333333334" y="9.666666666666666"/>
      <point x="90.0" y="-6.0" type="qcurve"/>
      <point x="40.0" y="85.0" type="line"/>
      <point x="81.33333333333333" y="110.66666666666666"/>
      <point x="189.66666666666666" y="134.0"/>
      <point x="253.66666666666666" y="134.0" type="qcurve"/>
      <point x="272.6666666666667" y="134.0"/>
      <point x="317.6666666666667" y="124.0"/>
      <point x="360.6666666666667" y="109.0" type="qcurve" smooth="yes"/>
      <point x="403.3333333333333" y="94.0"/>
      <point x="442.3333333333333" y="87.0"/>
      <point x="458.3333333333333" y="87.0" type="qcurve"/>
      <point x="485.6666666666667" y="87.0"/>
      <point x="539.6666666666666" y="104.33333333333333"/>
      <point x="568.0" y="122.0" type="qcurve"/>
      <point x="630.0" y="37.0" type="line"/>
      <point x="598.3333333333334" y="8.333333333333334"/>
      <point x="507.3333333333333" y="-21.0"/>
    </contour>
    <contour>
      <point x="484.0" y="204.0" type="line"/>
      <point x="58.0" y="204.0" type="line"/>
      <point x="58.0" y="300.6666666666667" type="line"/>
      <point x="484.0" y="300.6666666666667" type="line"/>
    </contour>
    <contour>
      <point x="484.0" y="338.6666666666667" type="line"/>
      <point x="58.0" y="338.6666666666667" type="line"/>
      <point x="58.0" y="435.3333333333333" type="line"/>
      <point x="484.0" y="435.3333333333333" type="line"/>
    </contour>
  </outline>
</glyph>
<glyph name="peseta" format="2">
  <advance width="781"/>
  <unicode hex="20A7"/>
  <anchor x="391.0" y="0" name="bottom"/>
  <anchor x="391.0" y="700.0" name="top"/>
  <outline>
    <contour>
      <point x="735.6666666666666" y="410.3333333333333" type="line"/>
      <point x="69.0" y="410.3333333333333" type="line"/>
      <point x="69.0" y="534.0" type="line"/>
      <point x="735.6666666666666" y="534.0" type="line"/>
    </contour>
    <component base="P" xOffset="70"/>
  </outline>
</glyph>
<glyph name="dong" format="2">
  <advance width="523"/>
  <unicode hex="20AB"/>
  <outline>
    <contour>
      <point x="197.66666666666666" y="146.0" type="qcurve"/>
      <point x="135.0" y="146.0"/>
      <point x="40.0" y="251.0"/>
      <point x="40.0" y="324.3333333333333" type="qcurve"/>
      <point x="40.0" y="396.8709677419355"/>
      <point x="135.0" y="497.0"/>
      <point x="201.66666666666666" y="497.0" type="qcurve"/>
      <point x="250.66666666666666" y="497.0"/>
      <point x="321.3333333333333" y="435.6666666666667"/>
      <point x="331.6666666666667" y="383.6666666666667" type="qcurve"/>
      <point x="298.3333333333333" y="404.0" type="line"/>
      <point x="298.3333333333333" y="704.6666666666666" type="line"/>
      <point x="422.0" y="704.6666666666666" type="line"/>
      <point x="422.0" y="156.0" type="line"/>
      <point x="298.3333333333333" y="156.0" type="line"/>
      <point x="298.3333333333333" y="266.0" type="line"/>
      <point x="326.6666666666667" y="258.6666666666667" type="line"/>
      <point x="326.6666666666667" y="220.66666666666666"/>
      <point x="247.66666666666666" y="146.0"/>
    </contour>
    <contour>
      <point x="165.0" y="324.3333333333333" type="qcurve"/>
      <point x="165.0" y="290.6666666666667"/>
      <point x="202.66666666666666" y="245.66666666666666"/>
      <point x="232.66666666666666" y="245.66666666666666" type="qcurve"/>
      <point x="262.3333333333333" y="245.66666666666666"/>
      <point x="303.3333333333333" y="292.6666666666667"/>
      <point x="303.3333333333333" y="324.3333333333333" type="qcurve"/>
      <point x="303.3333333333333" y="358.0"/>
      <point x="263.0" y="405.0"/>
      <point x="232.66666666666666" y="405.0" type="qcurve"/>
      <point x="202.66666666666666" y="405.0"/>
      <point x="165.0" y="359.6666666666667"/>
    </contour>
    <contour>
      <point x="453.3333333333333" y="-6.666666666666666" type="line"/>
      <point x="44.333333333333336" y="-6.666666666666666" type="line"/>
      <point x="44.333333333333336" y="85.33333333333333" type="line"/>
      <point x="453.3333333333333" y="85.33333333333333" type="line"/>
    </contour>
    <contour>
      <point x="492.6666666666667" y="533.3333333333334" type="line"/>
      <point x="209.66666666666666" y="533.3333333333334" type="line"/>
      <point x="209.66666666666666" y="632.3333333333334" type="line"/>
      <point x="492.6666666666667" y="632.3333333333334" type="line"/>
    </contour>
  </outline>
</glyph>
<glyph name="liraTurkish" format="2">
  <advance width="609"/>
  <unicode hex="20BA"/>
  <outline>
    <contour>
      <point x="243.66666666666666" y="-10.0" type="qcurve"/>
      <point x="200.33333333333334" y="-10.0"/>
      <point x="152.3160656446342" y="-2.421170990557511"/>
      <point x="139.33333333333334" y="3.333333333333333" type="qcurve"/>
      <point x="139.33333333333334" y="700.0" type="line"/>
      <point x="271.3333333333333" y="700.0" type="line"/>
      <point x="272.3333333333333" y="52.0" type="line"/>
      <point x="250.66666666666666" y="117.0" type="line"/>
      <point x="319.0861423220974" y="117.0"/>
      <point x="431.98697502031996" y="179.96454311087103"/>
      <point x="452.6666666666667" y="237.0" type="qcurve"/>
      <point x="575.3333333333334" y="198.66666666666666" type="line"/>
      <point x="559.3333333333334" y="104.0"/>
      <point x="367.3333333333333" y="-10.0"/>
    </contour>
    <contour>
      <point x="68.0" y="342.3333333333333" type="line"/>
      <point x="22.0" y="427.3333333333333" type="line"/>
      <point x="367.6666666666667" y="620.3333333333334" type="line"/>
      <point x="419.0" y="537.3333333333334" type="line"/>
    </contour>
    <contour>
      <point x="81.33333333333333" y="176.66666666666666" type="line"/>
      <point x="35.333333333333336" y="261.6666666666667" type="line"/>
      <point x="381.0" y="454.6666666666667" type="line"/>
      <point x="432.3333333333333" y="371.6666666666667" type="line"/>
    </contour>
  </outline>
</glyph>
<glyph name="minus" format="2">
  <advance width="580"/>
  <unicode hex="2212"/>
  <note>
minus
</note>
  <outline>
    <contour>
      <point x="536.6666666666666" y="236.0" type="line"/>
      <point x="43.0" y="236.0" type="line"/>
      <point x="43.0" y="352.0" type="line"/>
      <point x="536.6666666666666" y="352.0" type="line"/>
    </contour>
  </outline>
</glyph>
<glyph name="integral" format="2">
  <advance width="591"/>
  <unicode hex="222B"/>
  <note>
integral
</note>
  <outline>
    <contour>
      <point x="134.66666666666666" y="-133.66666666666666" type="qcurve" smooth="yes"/>
      <point x="104.66666666666666" y="-133.66666666666666"/>
      <point x="29.333333333333332" y="-103.66666666666667"/>
      <point x="-10.0" y="-75.66666666666667" type="qcurve"/>
      <point x="58.0" y="38.0" type="line"/>
      <point x="72.0" y="26.33333333333333"/>
      <point x="109.33333333333333" y="10.333333333333332"/>
      <point x="127.0" y="10.333333333333332" type="qcurve" smooth="yes"/>
      <point x="153.71428571428572" y="10.333333333333332"/>
      <point x="191.00434767984078" y="57.35941941237796"/>
      <point x="198.0" y="99.33333333333333" type="qcurve"/>
      <point x="273.3333333333333" y="547.0" type="line" smooth="yes"/>
      <point x="290.6666666666667" y="650.0"/>
      <point x="386.3333333333333" y="751.6666666666666"/>
      <point x="462.6666666666667" y="751.6666666666666" type="qcurve" smooth="yes"/>
      <point x="508.3333333333333" y="751.6666666666666"/>
      <point x="577.0" y="729.0"/>
      <point x="603.0" y="706.6666666666666" type="qcurve"/>
      <point x="562.6666666666666" y="588.6666666666666" type="line"/>
      <point x="541.6666666666666" y="602.6666666666666"/>
      <point x="494.6666666666667" y="617.6666666666666"/>
      <point x="475.6666666666667" y="617.6666666666666" type="qcurve" smooth="yes"/>
      <point x="446.6666666666667" y="617.6666666666666"/>
      <point x="408.6666666666667" y="570.6666666666666"/>
      <point x="400.6666666666667" y="523.6666666666666" type="qcurve"/>
      <point x="327.0" y="71.0" type="line" smooth="yes"/>
      <point x="310.0" y="-31.666666666666668"/>
      <point x="213.0" y="-133.66666666666666"/>
    </contour>
  </outline>
</glyph>
<glyph name="approxequal" format="2">
  <advance width="587"/>
  <unicode hex="2248"/>
  <note>
approxequal
</note>
  <outline>
    <contour>
      <point x="412.6666666666667" y="284.3333333333333" type="qcurve"/>
      <point x="394.3333333333333" y="284.3333333333333"/>
      <point x="339.3333333333333" y="298.6666666666667"/>
      <point x="276.6666666666667" y="324.3333333333333" type="qcurve" smooth="yes"/>
      <point x="229.33333333333334" y="344.3333333333333"/>
      <point x="193.0" y="353.6666666666667"/>
      <point x="181.66666666666666" y="353.6666666666667" type="qcurve"/>
      <point x="165.0" y="353.6666666666667"/>
      <point x="145.33333333333334" y="329.6666666666667"/>
      <point x="146.0" y="308.3333333333333" type="qcurve"/>
      <point x="53.333333333333336" y="303.6666666666667" type="line"/>
      <point x="53.333333333333336" y="374.0"/>
      <point x="121.66666666666667" y="451.6666666666667"/>
      <point x="188.0" y="451.6666666666667" type="qcurve"/>
      <point x="206.0" y="451.6666666666667"/>
      <point x="256.6666666666667" y="436.3333333333333"/>
      <point x="315.3333333333333" y="411.3333333333333" type="qcurve" smooth="yes"/>
      <point x="359.6666666666667" y="392.3333333333333"/>
      <point x="393.6666666666667" y="382.3333333333333"/>
      <point x="404.3333333333333" y="382.3333333333333" type="qcurve"/>
      <point x="423.0" y="382.3333333333333"/>
      <point x="442.0" y="403.3333333333333"/>
      <point x="441.3333333333333" y="430.0" type="qcurve"/>
      <point x="534.0" y="432.3333333333333" type="line"/>
      <point x="534.0" y="361.3333333333333"/>
      <point x="472.0" y="284.3333333333333"/>
    </contour>
    <contour>
      <point x="412.6666666666667" y="82.66666666666667" type="qcurve"/>
      <point x="394.3333333333333" y="82.66666666666667"/>
      <point x="339.3333333333333" y="97.0"/>
      <point x="276.6666666666667" y="122.66666666666667" type="qcurve" smooth="yes"/>
      <point x="229.33333333333334" y="142.66666666666666"/>
      <point x="193.0" y="152.0"/>
      <point x="181.66666666666666" y="152.0" type="qcurve"/>
      <point x="165.0" y="152.0"/>
      <point x="145.33333333333334" y="128.0"/>
      <point x="146.0" y="106.66666666666667" type="qcurve"/>
      <point x="53.333333333333336" y="102.0" type="line"/>
      <point x="53.333333333333336" y="172.33333333333334"/>
      <point x="120.0" y="250.0"/>
      <point x="184.66666666666666" y="250.0" type="qcurve"/>
      <point x="203.0" y="250.0"/>
      <point x="255.33333333333334" y="235.33333333333334"/>
      <point x="315.3333333333333" y="209.66666666666666" type="qcurve" smooth="yes"/>
      <point x="359.6666666666667" y="190.66666666666666"/>
      <point x="393.6666666666667" y="180.66666666666666"/>
      <point x="404.3333333333333" y="180.66666666666666" type="qcurve"/>
      <point x="423.0" y="180.66666666666666"/>
      <point x="442.0" y="201.66666666666666"/>
      <point x="441.3333333333333" y="228.33333333333334" type="qcurve"/>
      <point x="534.0" y="230.66666666666666" type="line"/>
      <point x="534.0" y="159.66666666666666"/>
      <point x="472.0" y="82.66666666666667"/>
    </contour>
  </outline>
</glyph>
<glyph name="lessequal" format="2">
  <advance width="627"/>
  <unicode hex="2264"/>
  <note>
lessequal
</note>
  <outline>
    <contour>
      <point x="561.3333333333334" y="0.0" type="line"/>
      <point x="64.33333333333333" y="0.0" type="line"/>
      <point x="64.33333333333333" y="112.66666666666666" type="line"/>
      <point x="561.3333333333334" y="112.66666666666666" type="line"/>
    </contour>
    <contour>
      <point x="529.6666666666666" y="250.33333333333334" type="line"/>
      <point x="497.0" y="148.0" type="line"/>
      <point x="65.0" y="302.3333333333333" type="line"/>
      <point x="65.0" y="386.0" type="line"/>
      <point x="497.0" y="539.6666666666666" type="line"/>
      <point x="534.3333333333334" y="442.0" type="line"/>
      <point x="157.66666666666666" y="316.0" type="line"/>
      <point x="154.33333333333334" y="375.0" type="line"/>
    </contour>
  </outline>
</glyph>
<glyph name="J.ss01" format="2">
  <advance width="579"/>
  <note>
J
</note>
  <anchor x="305.0" y="0" name="bottom"/>
  <anchor x="421.0" y="700.0" name="top"/>
  <outline>
    <contour>
      <point x="254.33333333333334" y="-10.0" type="qcurve"/>
      <point x="179.0" y="-10.0"/>
      <point x="68.0" y="57.666666666666664"/>
      <point x="40.0" y="111.66666666666667" type="qcurve"/>
      <point x="127.0" y="201.0" type="line"/>
      <point x="161.0" y="153.66666666666666"/>
      <point x="213.0" y="121.33333333333333"/>
      <point x="246.33333333333334" y="121.33333333333333" type="qcurve" smooth="yes"/>
      <point x="290.3333333333333" y="121.33333333333333"/>
      <point x="346.0" y="180.0"/>
      <point x="346.0" y="227.33333333333334" type="qcurve"/>
      <point x="346.0" y="700.0" type="line"/>
      <point x="487.3333333333333" y="700.0" type="line"/>
      <point x="487.3333333333333" y="213.0" type="line"/>
      <point x="487.3333333333333" y="114.0"/>
      <point x="358.0" y="-10.0"/>
    </contour>
  </outline>
</glyph>
<glyph name="acutecomb.case" format="2">
  <anchor x="102.66666666666666" y="521.6666666666666" name="_top"/>
  <anchor x="134.33333333333334" y="703.0" name="top"/>
  <outline>
    <contour>
      <point x="245.66666666666666" y="664.6666666666666" type="line"/>
      <point x="52.333333333333336" y="563.3333333333334" type="line"/>
      <point x="14.333333333333334" y="622.0" type="line"/>
      <point x="171.0" y="757.0" type="line"/>
    </contour>
  </outline>
</glyph>
<glyph name="five.dnom" format="2">
  <advance width="358"/>
  <outline>
    <contour>
      <point x="316.0" y="122.33333333333333" type="qcurve"/>
      <point x="316.0" y="62.666666666666664"/>
      <point x="227.8170731707317" y="-9.333333333333334"/>
      <point x="157.33333333333334" y="-9.333333333333334" type="qcurve"/>
      <point x="129.1919191919192" y="-9.333333333333334"/>
      <point x="61.72625527145003" y="13.038641879745812"/>
      <point x="40.0" y="29.333333333333332" type="qcurve"/>
      <point x="83.66666666666667" y="98.66666666666667" type="line"/>
      <point x="100.66666666666667" y="86.66666666666667"/>
      <point x="139.94623655913978" y="73.66666666666667"/>
      <point x="161.66666666666666" y="73.66666666666667" type="qcurve"/>
      <point x="187.8190476190476" y="73.66666666666667"/>
      <point x="219.0" y="99.33333333333333"/>
      <point x="219.0" y="120.66666666666667" type="qcurve"/>
      <point x="219.0" y="139.66666666666666"/>
      <point x="190.47368421052633" y="165.33333333333334"/>
      <point x="166.66666666666666" y="165.33333333333334" type="qcurve"/>
      <point x="149.2405063291139" y="165.33333333333334"/>
      <point x="117.48628419906345" y="157.35843718610474"/>
      <point x="94.66666666666667" y="143.0" type="qcurve"/>
      <point x="53.333333333333336" y="186.66666666666666" type="line"/>
      <point x="78.33333333333333" y="356.3333333333333" type="line"/>
      <point x="298.0" y="356.3333333333333" type="line"/>
      <point x="298.0" y="271.3333333333333" type="line"/>
      <point x="124.0" y="271.3333333333333" type="line"/>
      <point x="161.0" y="308.3333333333333" type="line"/>
      <point x="138.66666666666666" y="176.66666666666666" type="line"/>
      <point x="102.66666666666667" y="192.0" type="line"/>
      <point x="119.66666666666667" y="214.33333333333334"/>
      <point x="166.0" y="234.66666666666666"/>
      <point x="199.0" y="234.66666666666666" type="qcurve"/>
      <point x="248.0" y="234.66666666666666"/>
      <point x="316.0" y="169.56989247311827"/>
    </contour>
  </outline>
</glyph>
<glyph name="four.dnom" format="2">
  <advance width="401"/>
  <outline>
    <contour>
      <point x="298.0" y="-1.3333333333333335" type="line"/>
      <point x="196.33333333333334" y="-1.3333333333333335" type="line"/>
      <point x="196.33333333333334" y="295.0" type="line"/>
      <point x="232.0" y="279.6666666666667" type="line"/>
      <point x="97.33333333333333" y="123.33333333333333" type="line"/>
      <point x="99.33333333333333" y="160.33333333333334" type="line"/>
      <point x="357.3333333333333" y="160.33333333333334" type="line"/>
      <point x="357.3333333333333" y="74.0" type="line"/>
      <point x="52.0" y="74.0" type="line"/>
      <point x="33.333333333333336" y="149.66666666666666" type="line"/>
      <point x="208.66666666666666" y="363.6666666666667" type="line"/>
      <point x="298.0" y="363.6666666666667" type="line"/>
    </contour>
  </outline>
</glyph>
<glyph name="gravecomb.case" format="2">
  <anchor x="163.66666666666666" y="524.3333333333334" name="_top"/>
  <anchor x="139.33333333333334" y="764.0" name="top"/>
  <outline>
    <contour>
      <point x="255.33333333333334" y="627.3333333333334" type="line"/>
      <point x="217.33333333333334" y="568.6666666666666" type="line"/>
      <point x="24.0" y="670.0" type="line"/>
      <point x="98.66666666666667" y="762.3333333333334" type="line"/>
    </contour>
  </outline>
</glyph>
<glyph name="ring.case" format="2">
  <advance width="336"/>
  <anchor x="164.0" y="628.0" name="_top"/>
  <outline>
    <contour>
      <point x="284.0" y="828.3333333333334" type="qcurve"/>
      <point x="284.0" y="782.6666666666666"/>
      <point x="215.0" y="717.6666666666666"/>
      <point x="168.33333333333334" y="717.6666666666666" type="qcurve"/>
      <point x="121.66666666666667" y="717.6666666666666"/>
      <point x="52.666666666666664" y="782.6666666666666"/>
      <point x="52.666666666666664" y="828.3333333333334" type="qcurve"/>
      <point x="52.666666666666664" y="875.0"/>
      <point x="120.66666666666667" y="941.0"/>
      <point x="168.33333333333334" y="941.0" type="qcurve"/>
      <point x="216.0" y="941.0"/>
      <point x="284.0" y="875.0"/>
    </contour>
    <contour>
      <point x="127.0" y="828.6666666666666" type="qcurve"/>
      <point x="127.0" y="811.6666666666666"/>
      <point x="150.33333333333334" y="789.6666666666666"/>
      <point x="168.33333333333334" y="789.6666666666666" type="qcurve"/>
      <point x="186.33333333333334" y="789.6666666666666"/>
      <point x="209.66666666666666" y="811.6666666666666"/>
      <point x="209.66666666666666" y="828.3333333333334" type="qcurve"/>
      <point x="209.66666666666666" y="846.0"/>
      <point x="185.66666666666666" y="869.0"/>
      <point x="168.33333333333334" y="869.0" type="qcurve"/>
      <point x="150.33333333333334" y="869.0"/>
      <point x="127.0" y="847.0"/>
    </contour>
  </outline>
</glyph>
<glyph name="tildecomb.case" format="2">
  <anchor x="210.0" y="465.0" name="_top"/>
  <anchor x="220.0" y="733.0" name="top"/>
  <outline>
    <contour>
      <point x="120.33333333333333" y="573.0" type="qcurve"/>
      <point x="30.0" y="573.0" type="line"/>
      <point x="30.0" y="632.6666666666666"/>
      <point x="92.33333333333333" y="702.6666666666666"/>
      <point x="146.0" y="702.6666666666666" type="qcurve" smooth="yes"/>
      <point x="161.0" y="702.6666666666666"/>
      <point x="195.0" y="693.6666666666666"/>
      <point x="227.0" y="679.6666666666666" type="qcurve" smooth="yes"/>
      <point x="250.66666666666666" y="669.3333333333334"/>
      <point x="271.0" y="662.6666666666666"/>
      <point x="278.6666666666667" y="662.6666666666666" type="qcurve"/>
      <point x="291.6666666666667" y="662.6666666666666"/>
      <point x="304.6666666666667" y="684.6666666666666"/>
      <point x="303.6666666666667" y="702.6666666666666" type="qcurve"/>
      <point x="393.0" y="702.6666666666666" type="line"/>
      <point x="393.0" y="646.6666666666666"/>
      <point x="336.3333333333333" y="572.0"/>
      <point x="291.0" y="572.0" type="qcurve"/>
      <point x="274.0" y="572.0"/>
      <point x="235.0" y="582.0"/>
      <point x="198.0" y="596.0" type="qcurve" smooth="yes"/>
      <point x="174.33333333333334" y="605.3333333333334"/>
      <point x="154.0" y="612.0"/>
      <point x="147.33333333333334" y="612.0" type="qcurve" smooth="yes"/>
      <point x="135.33333333333334" y="612.0"/>
      <point x="120.33333333333333" y="591.0"/>
    </contour>
  </outline>
</glyph>
